<?xml version="1.0" standalone="no"?>
<!DOCTYPE svg PUBLIC "-//W3C//DTD SVG 20010904//EN"
 "http://www.w3.org/TR/2001/REC-SVG-20010904/DTD/svg10.dtd">
<svg version="1.0" xmlns="http://www.w3.org/2000/svg"
 width="300.000000pt" height="300.000000pt" viewBox="0 0 300.000000 300.000000"
 preserveAspectRatio="xMidYMid meet">
<metadata>
Created by potrace 1.11, written by Peter Selinger 2001-2013
</metadata>
<g transform="translate(0.000000,300.000000) scale(0.100000,-0.100000)"
fill="#000000" stroke="none">
<path d="M0 1500 l0 -1500 1500 0 1500 0 0 1500 0 1500 -728 0 c-553 0 -731
-3 -740 -12 -9 -9 -15 -9 -24 0 -16 16 -1153 18 -1143 2 3 -5 -3 -10 -14 -10
-16 0 -20 -6 -18 -22 2 -19 -3 -23 -28 -23 -28 0 -30 2 -27 33 l2 32 -140 0
-140 0 0 -1500z m2184 1428 c18 -15 19 -18 4 -18 -10 0 -23 -9 -30 -20 -15
-24 -28 -26 -28 -5 0 8 -8 20 -18 26 -17 11 -17 13 7 38 22 22 27 24 35 11 5
-8 18 -23 30 -32z m496 -28 c0 -5 -4 -10 -10 -10 -5 0 -10 5 -10 10 0 6 5 10
10 10 6 0 10 -4 10 -10z m-2292 -52 c-6 -18 -28 -21 -28 -4 0 9 7 16 16 16 9
0 14 -5 12 -12z m2112 -3 c0 -8 -6 -15 -14 -15 -17 0 -28 14 -19 24 12 12 33
6 33 -9z m-646 -16 c-3 -5 -10 -7 -15 -3 -5 3 -7 10 -3 15 3 5 10 7 15 3 5 -3
7 -10 3 -15z m-1176 -56 c-2 -10 -10 -18 -18 -18 -8 0 -16 8 -18 18 -2 12 3
17 18 17 15 0 20 -5 18 -17z m724 -47 c6 -15 25 -37 42 -47 l31 -19 -28 0
c-39 0 -65 -16 -87 -53 l-20 -32 0 36 c0 40 -15 59 -46 59 -13 0 -24 8 -27 19
-5 21 10 31 46 31 24 0 66 37 68 59 1 10 3 9 6 -4 2 -11 9 -33 15 -49z m356
-44 c4 -28 -24 -40 -45 -19 -14 13 -14 19 -3 32 18 22 44 15 48 -13z m1114
-35 c-3 -20 -9 -27 -19 -22 -9 3 -21 1 -28 -5 -8 -7 -11 -1 -11 23 1 30 4 33
31 33 28 0 31 -2 27 -29z m-2062 -2 c0 -8 -7 -15 -15 -15 -8 0 -15 7 -15 15 0
8 7 15 15 15 8 0 15 -7 15 -15z m43 -50 c1 -5 -6 -11 -15 -13 -11 -2 -18 3
-18 13 0 17 30 18 33 0z m-169 -84 c23 -25 17 -55 -12 -59 -29 -4 -52 14 -52
43 0 40 35 49 64 16z m1277 -17 c11 -14 10 -18 -5 -29 -21 -16 -42 -10 -51 12
-11 30 34 44 56 17z m-191 -45 c0 -25 -33 -22 -38 4 -2 12 3 17 17 17 15 0 21
-6 21 -21z m95 1 c3 -5 4 -14 0 -20 -8 -13 -35 -1 -35 16 0 16 26 19 35 4z
m-1339 -80 c13 -5 36 -5 56 0 l33 10 -27 -23 c-33 -28 -41 -53 -28 -97 l10
-34 -28 33 c-25 30 -32 33 -69 30 l-41 -4 24 24 c26 26 30 53 14 98 l-10 28
21 -28 c12 -16 32 -32 45 -37z m2219 0 c3 -5 1 -10 -4 -10 -6 0 -11 5 -11 10
0 6 2 10 4 10 3 0 8 -4 11 -10z m-1501 -23 c7 -11 7 -20 0 -27 -15 -15 -49 13
-41 34 8 20 26 17 41 -7z m1006 -26 c0 -24 -25 -34 -40 -16 -15 18 -5 35 21
35 12 0 19 -7 19 -19z m-1716 -76 c9 -24 -4 -45 -29 -45 -27 0 -40 26 -24 46
15 18 45 18 53 -1z m-445 -54 c19 -12 6 -41 -19 -41 -13 0 -20 7 -20 18 0 31
14 39 39 23z m1806 -45 c57 -20 55 -48 -4 -60 -38 -8 -46 -7 -57 9 -8 10 -14
22 -14 26 0 7 28 39 33 39 1 0 20 -7 42 -14z m900 4 c3 -5 1 -10 -4 -10 -6 0
-11 5 -11 10 0 6 2 10 4 10 3 0 8 -4 11 -10z m-1890 -100 c0 -8 -10 -16 -22
-18 -22 -3 -32 16 -16 32 12 11 38 2 38 -14z m345 -15 c0 -8 -6 -15 -14 -15
-17 0 -28 14 -19 24 12 12 33 6 33 -9z m1318 -14 c21 -13 10 -46 -16 -49 -24
-4 -38 18 -28 43 6 17 24 19 44 6z m-1948 -36 c20 -24 3 -57 -28 -53 -30 3
-41 30 -22 53 16 19 34 19 50 0z m1260 -55 c0 -5 -4 -10 -10 -10 -5 0 -10 5
-10 10 0 6 5 10 10 10 6 0 10 -4 10 -10z m-481 -47 c-8 -9 -16 -10 -22 -4 -13
13 0 31 19 24 11 -4 12 -8 3 -20z m335 -75 c-3 -5 -1 -15 5 -22 9 -11 6 -12
-16 -8 -25 5 -27 4 -14 -11 17 -22 60 -22 91 0 l25 17 -19 -28 c-13 -21 -17
-40 -13 -69 4 -29 2 -36 -6 -28 -14 14 -62 14 -90 0 -21 -12 -21 -12 -4 14 21
33 22 56 1 85 -10 15 -11 22 -3 22 6 0 9 8 7 18 -4 12 2 17 19 18 12 1 20 -2
17 -8z m-114 -53 c18 -21 5 -45 -24 -45 -26 0 -47 25 -39 48 6 17 48 15 63 -3z
m-651 -24 c19 -12 6 -41 -19 -41 -13 0 -20 7 -20 18 0 31 14 39 39 23z m19
-119 c-4 -22 -46 -28 -54 -8 -4 9 -1 23 6 31 16 19 53 1 48 -23z m-440 -54
c-6 -18 -28 -21 -28 -4 0 9 7 16 16 16 9 0 14 -5 12 -12z m933 -34 c38 -46
122 -57 177 -24 44 27 48 25 18 -10 -39 -48 -43 -92 -13 -151 l26 -49 -32 24
c-50 38 -93 41 -149 13 -27 -13 -48 -24 -48 -23 0 1 11 17 25 36 18 24 25 47
25 78 0 46 -26 102 -47 102 -7 0 -13 5 -13 10 0 15 16 12 31 -6z m1213 -23
c-8 -47 13 -84 65 -112 l36 -19 -36 6 c-52 8 -96 -17 -120 -69 l-19 -42 5 37
c8 51 -15 101 -54 120 l-32 15 45 5 c54 6 74 21 93 66 18 43 25 41 17 -7z
m-892 -63 c-7 -7 -12 -8 -12 -2 0 6 3 14 7 17 3 4 9 5 12 2 2 -3 -1 -11 -7
-17z m327 -104 c-9 -11 -15 -12 -25 -3 -11 9 -12 15 -3 25 9 11 15 12 25 3 11
-9 12 -15 3 -25z m-111 3 c2 -11 -3 -17 -17 -17 -23 0 -35 15 -26 31 10 15 39
6 43 -14z m-1078 -21 c0 -3 -4 -8 -10 -11 -5 -3 -10 -1 -10 4 0 6 5 11 10 11
6 0 10 -2 10 -4z m-110 -34 c0 -13 -12 -22 -22 -16 -10 6 -1 24 13 24 5 0 9
-4 9 -8z m-582 -18 c45 -32 10 -92 -47 -79 -17 4 -33 10 -35 13 -10 17 8 64
28 72 29 12 29 12 54 -6z m372 -54 c0 -5 -4 -10 -9 -10 -6 0 -13 5 -16 10 -3
6 1 10 9 10 9 0 16 -4 16 -10z m-181 -36 c1 -1 -4 -12 -12 -24 -9 -13 -17 -17
-22 -11 -3 6 -17 8 -32 5 l-25 -7 24 25 c20 22 49 28 67 12z m-409 -44 c0 -5
-4 -10 -10 -10 -5 0 -10 5 -10 10 0 6 5 10 10 10 6 0 10 -4 10 -10z m160 -4
c0 -3 -4 -8 -10 -11 -5 -3 -10 -1 -10 4 0 6 5 11 10 11 6 0 10 -2 10 -4z m950
-6 c0 -5 -2 -10 -4 -10 -3 0 -8 5 -11 10 -3 6 -1 10 4 10 6 0 11 -4 11 -10z
m-95 -110 c3 -5 1 -10 -4 -10 -6 0 -11 5 -11 10 0 6 2 10 4 10 3 0 8 -4 11
-10z m-470 -10 c3 -5 -1 -10 -10 -10 -9 0 -13 5 -10 10 3 6 8 10 10 10 2 0 7
-4 10 -10z m283 -54 c-11 -11 -15 -11 -24 2 -9 13 -8 19 5 28 21 16 38 -9 19
-30z m-118 14 c0 -5 -2 -10 -4 -10 -3 0 -8 5 -11 10 -3 6 -1 10 4 10 6 0 11
-4 11 -10z m1308 -162 c17 -17 15 -55 -4 -62 -38 -15 -71 17 -59 55 7 22 45
25 63 7z m-183 -59 c4 -5 4 -21 1 -35 -6 -21 -12 -25 -39 -22 -35 3 -47 28
-27 53 14 17 56 20 65 4z m-1725 -30 c0 -25 -33 -22 -38 4 -2 12 3 17 17 17
15 0 21 -6 21 -21z m1020 -129 c0 -13 -7 -20 -20 -20 -13 0 -20 7 -20 20 0 13
7 20 20 20 13 0 20 -7 20 -20z m-806 -91 c18 -26 11 -49 -15 -49 -25 0 -44 37
-28 56 16 19 25 18 43 -7z m2610 -35 c9 -25 7 -31 -12 -36 -12 -3 -22 3 -29
18 -9 19 -8 24 6 27 27 8 29 7 35 -9z m-259 -4 c3 -5 1 -10 -4 -10 -6 0 -11 5
-11 10 0 6 2 10 4 10 3 0 8 -4 11 -10z m-230 -84 c0 -32 -23 -53 -49 -43 -19
7 -21 48 -4 65 7 7 22 11 33 10 15 -2 20 -11 20 -32z m-135 -102 c0 -8 -8 -14
-18 -14 -25 0 -34 11 -21 26 13 15 39 7 39 -12z m512 -100 c23 -13 23 -13 1
-14 -12 0 -30 -11 -41 -24 l-19 -25 -22 30 c-12 16 -29 29 -39 29 -10 0 -4 7
15 16 18 9 35 25 39 36 6 19 7 19 24 -8 11 -15 29 -33 42 -40z m-1612 11 c17
-20 5 -45 -20 -45 -23 0 -35 22 -26 45 7 19 30 19 46 0z m-1092 -133 c3 -9 -2
-13 -14 -10 -9 1 -19 9 -22 16 -3 9 2 13 14 10 9 -1 19 -9 22 -16z m2582 -1
c0 -6 -4 -13 -10 -16 -5 -3 -10 1 -10 9 0 9 5 16 10 16 6 0 10 -4 10 -9z"/>
</g>
</svg>
